<svg viewBox="0 0 360 360" fill="none" xmlns="http://www.w3.org/2000/svg">
    <rect width="360" height="360" fill="white" />
    <g clip-path="url(#clip0_39_4)">
        <path
            d="M95.833 109.178C99.6691 87.4223 120.415 72.8955 142.171 76.7317L250.5 95.833C272.256 99.6691 286.783 120.415 282.946 142.171L263.845 250.5C260.009 272.256 239.263 286.783 217.507 282.946L109.178 263.845C87.4223 260.009 72.8955 239.263 76.7317 217.507L95.833 109.178Z"
            fill="#245AAC" />
        <path
            d="M77.8487 203.424C61.2169 184.993 65.3277 156.16 85.763 142.063C114.106 122.51 135.559 104.977 156.782 83.8119C175.24 65.4052 206.123 66.6874 221.136 87.9972L244.55 121.232C245.848 123.074 247.299 124.803 248.888 126.401L281.665 159.358C298.652 176.44 296.798 204.552 277.713 219.253L236.5 251L200.062 284.405C182.853 300.181 155.846 297.928 141.489 279.519L109.5 238.5L77.8487 203.424Z"
            fill="#608CCF" />
        <path
            d="M230 180C230 207.614 208.614 193.5 181 193.5C153.386 193.5 130 207.614 130 180C130 152.386 152.386 130 180 130C207.614 130 230 152.386 230 180Z"
            fill="#1C2A40" />
        <path
            d="M193 181.5C190.411 196.185 181.203 199.603 174.948 198.5C168.693 197.397 160.911 196.185 163.5 181.5C166.089 166.815 176.693 158.897 182.948 160C189.203 161.103 195.589 166.815 193 181.5Z"
            fill="#AFBED5" />
    </g>
    <defs>
        <clipPath id="clip0_39_4">
            <rect width="250" height="250" fill="white" transform="translate(55 55)" />
        </clipPath>
    </defs>
</svg>    